<?xml version="1.0" encoding="UTF-8"?><svg id="a" xmlns="http://www.w3.org/2000/svg" xmlns:xlink="http://www.w3.org/1999/xlink" viewBox="0 0 99.181 149.494"><defs><clipPath id="b"><path d="M50.262,96.954c.081.126.16.256.239.381h17.329c-9.757,10.579-19.177,20.794-28.597,31.006l-1.463,1.428c.521.196,1.051.383,1.592.556,16.075,5.219,33.174-1.551,40.152-16.005.5-1.037,1.1-1.443,2.311-1.421,3.389.066,6.781.023,10.173.023.403,0,.807.017,1.205-.003,1.737-.092,2.741-.94,2.741-2.302,0-1.323-1.057-2.15-2.814-2.155-5.979-.018-11.956-.02-17.933-.03-.517,0-1.039.023-1.552-.018-1.559-.125-2.663-1.183-2.62-2.481.046-1.328,1.132-2.277,2.77-2.287,2.303-.01,4.608-.008,6.911-.008,2.467,0,4.937.003,7.403-.015,1.734-.01,2.757-.899,2.767-2.25.006-1.368-.985-2.194-2.749-2.219-1.087-.018-2.173-.016-3.26-.01-.752,0-1.504.001-2.255-.003-2.092-.015-3.379-.982-3.324-2.475.051-1.456,1.263-2.34,3.267-2.343,1.34-.002,2.682.003,4.02.003,3.373.007,6.745.017,10.119-.066.81-.022,1.915-.611,2.3-1.25.347-.576.186-1.789-.282-2.32-.473-.541-1.586-.811-2.426-.824-5.113-.071-10.227-.063-15.343-.013-1.13.01-1.703-.356-2.265-1.281-1.165-1.899-2.376-3.824-3.909-5.459-1.883-2.015-4.115-3.746-6.256-5.653-6.304,6.733-12.277,13.114-18.25,19.493" clip-rule="evenodd" fill="none"/></clipPath><linearGradient id="c" x1="-22.116" y1="71.404" x2="128.915" y2="129.868" gradientUnits="userSpaceOnUse"><stop offset="0" stop-color="#d61920"/><stop offset=".16" stop-color="#d61920"/><stop offset=".384" stop-color="#d61a1f"/><stop offset=".465" stop-color="#d7211e"/><stop offset=".522" stop-color="#da2d1c"/><stop offset=".569" stop-color="#dd3e19"/><stop offset=".609" stop-color="#e25416"/><stop offset=".644" stop-color="#e86f11"/><stop offset=".676" stop-color="#ef900c"/><stop offset=".705" stop-color="#f6b406"/><stop offset=".73" stop-color="#ffdc00"/><stop offset="1" stop-color="#ffdc00"/></linearGradient><clipPath id="d"><path d="M21.811,88.357c-.608,1.056-1.302,1.416-2.55,1.394-3.909-.067-7.814-.045-11.723-.004-1.697.015-2.655.926-2.646,2.345.008,1.421.971,2.262,2.673,2.327.517.02,1.033.005,1.552.005,7.413-.002,14.827-.006,22.243-.005,2.069.005,3.263.88,3.25,2.326-.013,1.443-1.195,2.275-3.296,2.303-.863.012-1.724-.008-2.584-.008-5.345-.002-10.695-.054-16.035.048-.821.018-1.926.584-2.345,1.217-.38.571-.313,1.802.126,2.335.492.596,1.617,1.004,2.483,1.027,2.733.078,5.468.068,8.204.06,1.173-.005,2.343-.01,3.519-.008,1.99.005,3.11.805,3.155,2.223.048,1.463-1.095,2.29-3.206,2.31-.459.005-.917,0-1.377,0-6.439.003-12.876.003-19.313.005-.132.003-.26,0-.39-.002-.271-.003-.546-.008-.816.01-1.694.107-2.698.969-2.733,2.335-.032,1.405,1.044,2.408,2.795,2.419,5.232.033,10.461.051,15.69-.009,1.27-.015,1.895.345,2.442,1.453,3.551,7.162,9.052,12.373,16.842,15.306l1.032-1.708c4.505-7.685,9.009-15.367,13.686-23.342h-14.461c-.032-.248-.086-.368-.048-.449,3.822-8.659,7.634-17.323,11.531-25.955.208-.451,1.119-.872,1.714-.884,3.561-.085,7.126-.047,10.689-.047,1.811-.003,3.621,0,5.433,0,.039-.126.078-.246.119-.371-.557-.329-1.087-.692-1.665-.98-5.035-2.523-10.391-3.724-15.637-3.724-11.486,0-22.442,5.765-28.354,16.048" clip-rule="evenodd" fill="none"/></clipPath><linearGradient id="e" x1="-14.093" y1="73.629" x2="66.19" y2="119.657" gradientUnits="userSpaceOnUse"><stop offset="0" stop-color="#00adee"/><stop offset=".15" stop-color="#00adee"/><stop offset=".168" stop-color="#01a8ea"/><stop offset=".354" stop-color="#117dca"/><stop offset=".535" stop-color="#1d5cb1"/><stop offset=".707" stop-color="#26449f"/><stop offset=".866" stop-color="#2c3594"/><stop offset="1" stop-color="#2e3191"/></linearGradient><clipPath id="f"><path d="M52.362,69.276V0l-24.846,8.118v56.039c.586.2,1.169.399,1.751.578.048.015.188.053.42.053.229,0,.462-.038.642-.095,1.106-.366,2.208-.775,3.305-1.211v-28.994l13.646,7.261v27.511c1.652-.098,3.346-.09,5.081.015" clip-rule="evenodd" fill="none"/></clipPath><linearGradient id="g" x1="50.665" y1="71.896" x2="28.19" y2="-6.178" gradientUnits="userSpaceOnUse"><stop offset="0" stop-color="#2592d0"/><stop offset=".07" stop-color="#2592d0"/><stop offset=".37" stop-color="#2592d0"/><stop offset=".433" stop-color="#267dc2"/><stop offset=".555" stop-color="#295cad"/><stop offset=".672" stop-color="#2c449d"/><stop offset=".779" stop-color="#2d3594"/><stop offset=".87" stop-color="#2e3191"/><stop offset="1" stop-color="#2e3191"/></linearGradient><clipPath id="h"><path d="M33.635,63.483v-28.994l-24.846,7.632v28.846c2.876-2.798,5.819-5.542,8.78-8.16.826-.729,2.023-.839,2.661-.839.509,0,.998.068,1.42.193,1.399.423,2.775.911,4.11,1.382,1.151.408,2.34.83,3.508,1.193.048.015.188.053.42.053.229,0,.462-.038.642-.095,1.106-.366,2.208-.775,3.305-1.211" clip-rule="evenodd" fill="none"/></clipPath><linearGradient id="i" x1="29.652" y1="76.04" x2="8.068" y2="16.428" gradientUnits="userSpaceOnUse"><stop offset="0" stop-color="#2592d0"/><stop offset=".07" stop-color="#2592d0"/><stop offset=".21" stop-color="#2592d0"/><stop offset=".272" stop-color="#267dc2"/><stop offset=".392" stop-color="#295cad"/><stop offset=".506" stop-color="#2c449d"/><stop offset=".611" stop-color="#2d3594"/><stop offset=".7" stop-color="#2e3191"/><stop offset="1" stop-color="#2e3191"/></linearGradient><clipPath id="j"><path d="M78.898,121.225c-8.575,10.174-19.824,14.69-33.604,12.986-9.724-1.203-17.52-5.785-23.464-13.079-.438-.537-1.159-1.19-1.786-1.225-2.512-.143-5.035-.057-7.399-.057-1.227,3.029-2.359,5.928-3.586,8.792-.385.894-.417,1.614.342,2.318,3.168,2.934,6.292,5.913,9.539,8.772.468.414,1.595.504,2.275.313,2.026-.571,4.035-1.26,5.95-2.097,1.907-.832,3.583-.962,5.458.147,1.235.727,2.79.973,4.121,1.589.697.326,1.438.882,1.778,1.511,1.235,2.293,2.257,4.683,3.481,6.978.266.499,1.03,1.065,1.587,1.086,4.121.149,8.247.148,12.373.235,1.934.043,2.994-.792,3.593-2.488.517-1.466,1.458-2.798,1.98-4.264.729-2.046,2.052-3.284,4.344-3.801,1.319-.295,2.502-1.074,3.806-1.468.74-.22,1.687-.318,2.4-.091,2.597.837,5.12,1.887,7.722,2.727.57.183,1.565.085,1.972-.276,3.201-2.824,6.302-5.748,9.441-8.637.937-.857,1.006-1.734.498-2.881-1.218-2.749-2.281-5.56-3.454-8.469-2.03,0-4.215.076-6.391-.027-.081-.002-.159-.005-.237-.005-1.216,0-1.956.484-2.739,1.413" clip-rule="evenodd" fill="none"/></clipPath><linearGradient id="k" x1="-4.297" y1="107.078" x2="145.821" y2="182.703" xlink:href="#i"/></defs><polygon points="70.706 70.335 65.047 70.335 65.047 18.722 70.706 21.513 70.706 70.335" fill="#2592d0"/><g clip-path="url(#b)"><rect x="37.77" y="77.461" width="61.571" height="58.083" fill="url(#c)"/></g><path d="M52.361,69.311c1.213.074,2.445.196,3.698.368,9.467,1.315,16.996,5.861,22.789,12.944.446.546,1.152,1.24,1.775,1.276,2.507.145,5.033.06,7.416.06,1.252-3.095,2.494-6.016,3.589-8.985.213-.576.127-1.573-.28-1.972-3.117-3.055-6.308-6.043-9.584-8.947-.465-.414-1.601-.514-2.279-.318-2.131.617-4.225,1.373-6.273,2.213-1.689.691-3.171.779-4.844-.151-1.361-.759-2.994-1.077-4.436-1.726-.65-.296-1.337-.825-1.652-1.413-1.18-2.197-2.285-4.437-3.274-6.714-.484-1.116-1.183-1.564-2.44-1.556-1.404.013-2.805.015-4.206.018v14.905Z" fill="#2592d0"/><path d="M12.469,83.955c1.867,0,3.769-.108,5.649.032,1.786.13,2.859-.469,3.991-1.789,6.816-7.917,15.239-12.266,25.172-12.889v-14.9c-1.199,0-2.402,0-3.602-.005-1.078-.005-1.649.471-2.057,1.366-1.055,2.31-2.134,4.615-3.325,6.867-.315.592-.995,1.136-1.649,1.427-1.862.821-3.774,1.563-5.717,2.207-.675.223-1.565.263-2.237.053-2.553-.797-5.036-1.797-7.599-2.569-.68-.205-1.832-.14-2.293.268-3.279,2.901-6.474,5.888-9.584,8.947-.438.431-.538,1.494-.312,2.109,1.087,2.962,2.337,5.868,3.561,8.875" fill="#2592d0"/><g clip-path="url(#d)"><rect x="-.031" y="72.31" width="67.497" height="57.46" fill="url(#e)"/></g><g clip-path="url(#f)"><rect x="27.516" width="24.846" height="69.276" fill="url(#g)"/></g><g clip-path="url(#h)"><rect x="8.788" y="34.489" width="24.846" height="36.478" fill="url(#i)"/></g><g clip-path="url(#j)"><rect x="8.641" y="119.764" width="83.586" height="29.771" fill="url(#k)"/></g><polygon points="43.041 11.24 47.434 9.854 47.434 5.764 43.041 7.149 43.041 11.24" fill="#fff"/><polygon points="33.572 17.521 37.965 16.136 37.965 12.044 33.572 13.43 33.572 17.521" fill="#fff"/><polygon points="33.572 31.682 37.965 30.297 37.965 26.206 33.572 27.591 33.572 31.682" fill="#fff"/><polygon points="43.041 18.083 47.434 16.697 47.434 12.606 43.041 13.991 43.041 18.083" fill="#fff"/><polygon points="43.041 24.926 47.434 23.541 47.434 19.45 43.041 20.835 43.041 24.926" fill="#fff"/></svg>
