<?xml version="1.0" encoding="UTF-8"?><svg id="a" xmlns="http://www.w3.org/2000/svg" xmlns:xlink="http://www.w3.org/1999/xlink" viewBox="0 0 341.385 118.035"><defs><clipPath id="b"><path d="M42.548,76.552c.068.1.136.202.202.301h14.669c-8.26,8.353-16.234,16.418-24.208,24.481l-1.238,1.128c.441.155.89.303,1.347.439,13.608,4.121,28.083-1.225,33.99-12.637.423-.819.932-1.139,1.956-1.122,2.869.052,5.74.018,8.612.018.341,0,.683.013,1.02-.002,1.471-.073,2.321-.742,2.321-1.818,0-1.044-.895-1.698-2.382-1.701-5.062-.014-10.121-.016-15.181-.024-.437,0-.879.018-1.314-.014-1.32-.099-2.254-.934-2.218-1.959.039-1.048.959-1.798,2.345-1.806,1.95-.008,3.901-.007,5.85-.007,2.088,0,4.179.002,6.267-.011,1.468-.008,2.334-.71,2.343-1.777.005-1.08-.834-1.733-2.327-1.752-.92-.014-1.84-.012-2.759-.008-.636,0-1.273.001-1.909-.002-1.771-.012-2.86-.775-2.814-1.954.043-1.15,1.07-1.848,2.766-1.85,1.135-.002,2.27.002,3.403.002,2.855.006,5.71.013,8.566-.052.686-.017,1.621-.482,1.947-.987.294-.455.158-1.413-.239-1.832-.4-.427-1.343-.641-2.054-.65-4.329-.056-8.658-.049-12.988-.01-.956.008-1.442-.281-1.917-1.011-.986-1.499-2.011-3.019-3.309-4.31-1.594-1.591-3.484-2.958-5.296-4.463-5.337,5.316-10.393,10.354-15.45,15.391" clip-rule="evenodd" fill="none"/></clipPath><linearGradient id="c" x1="-17.34" y1="54.914" x2="108.211" y2="103.514" gradientUnits="userSpaceOnUse"><stop offset="0" stop-color="#d61920"/><stop offset=".16" stop-color="#d61920"/><stop offset=".384" stop-color="#d61a1f"/><stop offset=".465" stop-color="#d7211e"/><stop offset=".522" stop-color="#da2d1c"/><stop offset=".569" stop-color="#dd3e19"/><stop offset=".609" stop-color="#e25416"/><stop offset=".644" stop-color="#e86f11"/><stop offset=".676" stop-color="#ef900c"/><stop offset=".705" stop-color="#f6b406"/><stop offset=".73" stop-color="#ffdc00"/><stop offset="1" stop-color="#ffdc00"/></linearGradient><clipPath id="d"><path d="M18.463,69.764c-.515.834-1.102,1.118-2.158,1.1-3.309-.053-6.615-.036-9.924-.003-1.437.011-2.248.731-2.24,1.851.007,1.122.822,1.786,2.263,1.837.437.016.875.004,1.314.004,6.275-.002,12.551-.005,18.829-.004,1.751.004,2.762.695,2.751,1.836-.011,1.139-1.011,1.796-2.79,1.818-.731.01-1.459-.007-2.188-.007-4.525-.002-9.054-.043-13.574.038-.695.014-1.63.461-1.985.961-.322.451-.265,1.422.107,1.844.417.471,1.369.793,2.102.811,2.314.062,4.629.054,6.945.048.993-.004,1.984-.008,2.979-.006,1.685.004,2.633.635,2.671,1.755.041,1.155-.927,1.808-2.714,1.824-.389.004-.776,0-1.166,0-5.451.002-10.9.002-16.349.004-.112.002-.22,0-.33-.002-.23-.002-.462-.006-.69.008-1.434.084-2.284.765-2.313,1.844-.027,1.11.884,1.901,2.366,1.91,4.429.026,8.856.04,13.282-.007,1.075-.012,1.604.273,2.067,1.147,3.006,5.654,7.663,9.769,14.258,12.085l.874-1.349c3.814-6.068,7.626-12.133,11.586-18.43h-12.242c-.027-.196-.073-.291-.041-.354,3.235-6.837,6.462-13.678,9.761-20.493.176-.356.948-.688,1.451-.698,3.014-.067,6.032-.037,9.049-.037,1.533-.002,3.065,0,4.6,0,.033-.1.066-.194.1-.293-.471-.26-.92-.546-1.409-.774-4.263-1.992-8.797-2.94-13.237-2.94-9.723,0-18.998,4.552-24.002,12.671" clip-rule="evenodd" fill="none"/></clipPath><linearGradient id="e" x1="-11.037" y1="57.085" x2="55.425" y2="95.189" gradientUnits="userSpaceOnUse"><stop offset="0" stop-color="#00adee"/><stop offset=".15" stop-color="#00adee"/><stop offset=".168" stop-color="#01a8ea"/><stop offset=".354" stop-color="#117dca"/><stop offset=".535" stop-color="#1d5cb1"/><stop offset=".707" stop-color="#26449f"/><stop offset=".866" stop-color="#2c3594"/><stop offset="1" stop-color="#2e3191"/></linearGradient><clipPath id="f"><path d="M44.326,54.698V0l-21.033,6.41v44.246c.496.158.99.315,1.482.457.041.012.159.042.356.042.194,0,.391-.03.544-.075.936-.289,1.869-.612,2.798-.956v-22.893l11.552,5.733v21.722c1.398-.077,2.832-.071,4.302.012" clip-rule="evenodd" fill="none"/></clipPath><linearGradient id="g" x1="42.336" y1="56.966" x2="24.47" y2="-5.095" gradientUnits="userSpaceOnUse"><stop offset="0" stop-color="#2592d0"/><stop offset=".07" stop-color="#2592d0"/><stop offset=".37" stop-color="#2592d0"/><stop offset=".433" stop-color="#267dc2"/><stop offset=".555" stop-color="#295cad"/><stop offset=".672" stop-color="#2c449d"/><stop offset=".779" stop-color="#2d3594"/><stop offset=".87" stop-color="#2e3191"/><stop offset="1" stop-color="#2e3191"/></linearGradient><clipPath id="h"><path d="M28.473,50.124v-22.893l-21.033,6.026v22.776c2.434-2.209,4.926-4.376,7.433-6.443.699-.576,1.712-.663,2.252-.663.431,0,.845.054,1.202.153,1.184.334,2.349.72,3.479,1.091.975.322,1.981.655,2.97.942.041.012.159.042.356.042.194,0,.391-.03.544-.075.936-.289,1.869-.612,2.798-.956" clip-rule="evenodd" fill="none"/></clipPath><linearGradient id="i" x1="24.716" y1="60.301" x2="7.431" y2="12.562" gradientUnits="userSpaceOnUse"><stop offset="0" stop-color="#2592d0"/><stop offset=".07" stop-color="#2592d0"/><stop offset=".21" stop-color="#2592d0"/><stop offset=".272" stop-color="#267dc2"/><stop offset=".392" stop-color="#295cad"/><stop offset=".506" stop-color="#2c449d"/><stop offset=".611" stop-color="#2d3594"/><stop offset=".7" stop-color="#2e3191"/><stop offset="1" stop-color="#2e3191"/></linearGradient><clipPath id="j"><path d="M66.789,95.716c-7.259,8.033-16.782,11.598-28.447,10.253-8.232-.95-14.832-4.567-19.863-10.326-.371-.424-.981-.94-1.512-.968-2.126-.113-4.262-.045-6.264-.045-1.039,2.392-1.997,4.681-3.036,6.942-.326.706-.353,1.274.289,1.83,2.682,2.316,5.326,4.669,8.075,6.926.396.327,1.35.398,1.926.247,1.715-.451,3.416-.995,5.037-1.656,1.615-.657,3.033-.759,4.62.116,1.045.574,2.361.768,3.489,1.254.59.257,1.217.696,1.505,1.193,1.045,1.81,1.911,3.698,2.947,5.509.225.394.872.841,1.343.857,3.489.118,6.981.117,10.474.186,1.637.034,2.534-.625,3.042-1.964.437-1.157,1.234-2.209,1.676-3.367.617-1.616,1.737-2.593,3.677-3.001,1.116-.233,2.118-.848,3.222-1.159.626-.174,1.428-.251,2.032-.072,2.199.661,4.334,1.49,6.537,2.153.483.144,1.325.067,1.669-.218,2.71-2.23,5.335-4.538,7.992-6.819.793-.677.852-1.369.421-2.275-1.031-2.17-1.931-4.39-2.924-6.687-1.719,0-3.568.06-5.41-.022-.068-.002-.135-.004-.2-.004-1.029,0-1.655.382-2.318,1.116" clip-rule="evenodd" fill="none"/></clipPath><linearGradient id="k" x1="-3.163" y1="83.214" x2="122.616" y2="146.577" xlink:href="#i"/><clipPath id="l"><rect x="208.984" y="56.555" width="7.316" height="19.067" fill="#fff"/></clipPath><clipPath id="m"><polygon points="217.065 75.621 226.057 75.621 230.691 70.239 217.065 70.232 217.065 75.621" clip-rule="evenodd" fill="#fff"/></clipPath><clipPath id="n"><path d="M96.104,75.689h17.568l4.454-5.431v-.019h-14.913v-8.778h14.835v-.019l-4.452-4.819h-14.971c-1.391,0-2.521.981-2.521,2.192v16.875Z" clip-rule="evenodd" fill="#fff"/></clipPath><clipPath id="o"><polygon points="104.862 68.48 110.322 68.48 114.514 63.449 114.514 63.429 104.862 63.429 104.862 68.48" clip-rule="evenodd" fill="#fff"/></clipPath><clipPath id="p"><path d="M121.384,75.689h7.109v-10.266l3.839,3.223-.078.063,2.33,1.955c.473.399,1.106.623,1.767.623h2.209c.66,0,1.293-.224,1.769-.623l6.23-5.232v10.126h7.109v-15.966c0-1.713-1.596-3.1-3.565-3.1l-2.71.04c-.378.003-.74.134-1.013.362l-8.847,7.386-8.603-7.23c-.364-.302-.849-.471-1.355-.465l-3.074.038c-1.721,0-3.118,1.212-3.118,2.706v16.361Z" clip-rule="evenodd" fill="#fff"/></clipPath><clipPath id="q"><path d="M180.285,75.689h7.315l2.992-3.202h8.102v3.202h6.724v-8.036h-10.308l3.584-3.838v3.11h6.724v-7.561c0-1.516-1.412-2.742-3.155-2.742h-2.448c-1.084,0-2.109.425-2.791,1.156l-16.737,17.911Z" clip-rule="evenodd" fill="#fff"/></clipPath><clipPath id="r"><path d="M232.557,75.689h7.461v-12.811l8.47,7.355h-7.657v5.456h12.479c2.051,0,3.715-1.446,3.715-3.231v-.714c-.013-.988-.418-1.943-1.155-2.704l-11.993-12.418h-11.321v19.067Z" clip-rule="evenodd" fill="#fff"/></clipPath><clipPath id="s"><path d="M172.926,75.689h7.359l-6.068-6.38h.997c1.666,0,3.019-1.177,3.019-2.625v-7.436c0-1.448-1.353-2.625-3.019-2.625h-19.007v4.861h7.316v-.049h8.013v.465c.073.123.121.261.121.405v1.713c0,.481-.451.871-1.004.871h-6.126c-.027,0-.052-.004-.079-.006v4.428h2.11l6.367,6.38Z" clip-rule="evenodd" fill="#fff"/></clipPath><clipPath id="t"><polygon points="156.208 75.689 163.524 75.689 163.524 70.978 163.524 69.309 163.524 64.017 163.524 62.494 163.524 62.462 156.208 62.462 156.208 75.689" clip-rule="evenodd" fill="#fff"/></clipPath><clipPath id="u"><path d="M319.362,75.621h17.567l4.455-5.43v-.02h-14.913v-8.777h14.836v-.017l-4.452-4.822h-14.972c-1.393,0-2.521.982-2.521,2.192v16.874Z" clip-rule="evenodd" fill="#fff"/></clipPath><clipPath id="v"><polygon points="337.773 63.364 328.118 63.364 328.118 68.414 333.581 68.414 337.773 63.384 337.773 63.364" clip-rule="evenodd" fill="#fff"/></clipPath><clipPath id="w"><path d="M266.22,76.13h7.314l2.992-3.201h8.104v3.201h6.724v-8.036h-10.308l3.584-3.835v3.108h6.724v-7.561c0-1.513-1.412-2.74-3.156-2.74h-2.451c-1.084,0-2.108.424-2.789,1.153l-16.74,17.911Z" clip-rule="evenodd" fill="#fff"/></clipPath><clipPath id="x"><path d="M296.262,76.13h14.974l4.454-4.819v-.017h-14.84v-9.759h14.84v-.016l-4.454-4.823h-14.974c-1.391,0-2.519.982-2.519,2.19v15.055c0,1.209,1.128,2.189,2.519,2.189" clip-rule="evenodd" fill="#fff"/></clipPath></defs><polygon points="59.855 55.534 55.065 55.534 55.065 14.782 59.855 16.986 59.855 55.534" fill="#2592d0"/><g clip-path="url(#b)"><rect x="31.974" y="61.161" width="52.122" height="45.86" fill="url(#c)"/></g><path d="M44.325,54.726c1.027.058,2.07.155,3.13.291,8.014,1.039,14.388,4.627,19.292,10.22.378.431.975.979,1.503,1.007,2.122.115,4.261.048,6.278.048,1.06-2.444,2.111-4.75,3.038-7.094.18-.455.107-1.242-.237-1.557-2.639-2.412-5.34-4.772-8.113-7.065-.394-.327-1.355-.406-1.929-.251-1.804.487-3.577,1.084-5.31,1.747-1.43.546-2.684.615-4.101-.119-1.152-.599-2.535-.851-3.755-1.363-.55-.234-1.132-.651-1.398-1.116-.999-1.735-1.935-3.503-2.771-5.301-.41-.881-1.001-1.235-2.065-1.229-1.188.01-2.375.012-3.561.014v11.768Z" fill="#2592d0"/><path d="M10.555,66.288c1.581,0,3.19-.086,4.782.026,1.512.103,2.42-.37,3.379-1.413,5.77-6.251,12.9-9.685,21.309-10.176v-11.765c-1.015,0-2.033,0-3.049-.004-.913-.004-1.396.372-1.741,1.079-.893,1.824-1.806,3.644-2.815,5.422-.267.467-.843.897-1.396,1.126-1.577.649-3.195,1.234-4.839,1.742-.571.176-1.325.208-1.894.042-2.161-.63-4.263-1.419-6.433-2.028-.576-.162-1.551-.111-1.941.212-2.775,2.291-5.48,4.649-8.113,7.065-.371.34-.455,1.179-.264,1.665.92,2.338,1.978,4.633,3.014,7.008" fill="#2592d0"/><g clip-path="url(#d)"><rect x="-.026" y="57.093" width="57.138" height="45.368" fill="url(#e)"/></g><g clip-path="url(#f)"><rect x="23.293" width="21.033" height="54.698" fill="url(#g)"/></g><g clip-path="url(#h)"><rect x="7.44" y="27.231" width="21.033" height="28.802" fill="url(#i)"/></g><g clip-path="url(#j)"><rect x="7.315" y="94.562" width="70.758" height="23.506" fill="url(#k)"/></g><polygon points="28.42 13.834 32.138 12.74 32.138 9.509 28.42 10.604 28.42 13.834" fill="#fff"/><polygon points="28.42 25.015 32.138 23.921 32.138 20.691 28.42 21.785 28.42 25.015" fill="#fff"/><polygon points="36.436 14.278 40.154 13.183 40.154 9.953 36.436 11.047 36.436 14.278" fill="#fff"/><polygon points="36.436 19.681 40.154 18.587 40.154 15.357 36.436 16.451 36.436 19.681" fill="#fff"/><rect x="208.984" y="56.555" width="7.316" height="19.067" fill="#fff"/><g clip-path="url(#l)"><rect x="208.984" y="56.555" width="7.316" height="19.067" fill="#fff"/></g><polygon points="217.065 75.621 226.057 75.621 230.691 70.239 217.065 70.232 217.065 75.621" fill="#fff" fill-rule="evenodd"/><g clip-path="url(#m)"><rect x="217.065" y="70.232" width="13.625" height="5.389" fill="#fff"/></g><path d="M96.104,75.689h17.568l4.454-5.431v-.019h-14.913v-8.778h14.835v-.019l-4.452-4.819h-14.971c-1.391,0-2.521.981-2.521,2.192v16.875Z" fill="#fff" fill-rule="evenodd"/><g clip-path="url(#n)"><rect x="96.104" y="56.622" width="22.022" height="19.067" fill="#fff"/></g><polygon points="104.862 68.48 110.322 68.48 114.514 63.449 114.514 63.429 104.862 63.429 104.862 68.48" fill="#fff" fill-rule="evenodd"/><g clip-path="url(#o)"><rect x="104.862" y="63.429" width="9.652" height="5.051" fill="#fff"/></g><path d="M121.384,75.689h7.109v-10.266l3.839,3.223-.078.063,2.33,1.955c.473.399,1.106.623,1.767.623h2.209c.66,0,1.293-.224,1.769-.623l6.23-5.232v10.126h7.109v-15.966c0-1.713-1.596-3.1-3.565-3.1l-2.71.04c-.378.003-.74.134-1.013.362l-8.847,7.386-8.603-7.23c-.364-.302-.849-.471-1.355-.465l-3.074.038c-1.721,0-3.118,1.212-3.118,2.706v16.361Z" fill="#fff" fill-rule="evenodd"/><g clip-path="url(#p)"><rect x="121.384" y="56.492" width="32.284" height="19.197" fill="#fff"/></g><path d="M180.285,75.689h7.315l2.992-3.202h8.102v3.202h6.724v-8.036h-10.308l3.584-3.838v3.11h6.724v-7.561c0-1.516-1.412-2.742-3.155-2.742h-2.448c-1.084,0-2.109.425-2.791,1.156l-16.737,17.911Z" fill="#fff" fill-rule="evenodd"/><g clip-path="url(#q)"><rect x="180.285" y="56.622" width="25.132" height="19.067" fill="#fff"/></g><path d="M232.557,75.689h7.461v-12.811l8.47,7.355h-7.657v5.456h12.479c2.051,0,3.715-1.446,3.715-3.231v-.714c-.013-.988-.418-1.943-1.155-2.704l-11.993-12.418h-11.321v19.067Z" fill="#fff" fill-rule="evenodd"/><g clip-path="url(#r)"><rect x="232.557" y="56.622" width="24.469" height="19.067" fill="#fff"/></g><path d="M172.926,75.689h7.359l-6.068-6.38h.997c1.666,0,3.019-1.177,3.019-2.625v-7.436c0-1.448-1.353-2.625-3.019-2.625h-19.007v4.861h7.316v-.049h8.013v.465c.073.123.121.261.121.405v1.713c0,.481-.451.871-1.004.871h-6.126c-.027,0-.052-.004-.079-.006v4.428h2.11l6.367,6.38Z" fill="#fff" fill-rule="evenodd"/><g clip-path="url(#s)"><rect x="156.208" y="56.622" width="24.077" height="19.067" fill="#fff"/></g><polygon points="156.208 75.689 163.524 75.689 163.524 70.978 163.524 69.309 163.524 64.017 163.524 62.494 163.524 62.462 156.208 62.462 156.208 75.689" fill="#fff" fill-rule="evenodd"/><g clip-path="url(#t)"><rect x="156.208" y="62.462" width="7.316" height="13.227" fill="#fff"/></g><path d="M319.362,75.621h17.567l4.455-5.43v-.02h-14.913v-8.777h14.836v-.017l-4.452-4.822h-14.972c-1.393,0-2.521.982-2.521,2.192v16.874Z" fill="#fff" fill-rule="evenodd"/><g clip-path="url(#u)"><rect x="319.362" y="56.555" width="22.022" height="19.067" fill="#fff"/></g><polygon points="337.773 63.364 328.118 63.364 328.118 68.414 333.581 68.414 337.773 63.384 337.773 63.364" fill="#fff" fill-rule="evenodd"/><g clip-path="url(#v)"><rect x="328.118" y="63.364" width="9.655" height="5.05" fill="#fff"/></g><path d="M266.22,76.13h7.314l2.992-3.201h8.104v3.201h6.724v-8.036h-10.308l3.584-3.835v3.108h6.724v-7.561c0-1.513-1.412-2.74-3.156-2.74h-2.451c-1.084,0-2.108.424-2.789,1.153l-16.74,17.911Z" fill="#fff" fill-rule="evenodd"/><g clip-path="url(#w)"><rect x="266.22" y="57.066" width="25.135" height="19.064" fill="#fff"/></g><path d="M296.262,76.13h14.974l4.454-4.819v-.017h-14.84v-9.759h14.84v-.016l-4.454-4.823h-14.974c-1.391,0-2.519.982-2.519,2.19v15.055c0,1.209,1.128,2.189,2.519,2.189" fill="#fff" fill-rule="evenodd"/><g clip-path="url(#x)"><rect x="293.743" y="56.695" width="21.947" height="19.435" fill="#fff"/></g><path d="M98.966,86.402v-1.309h-.959c-.079,0-.148.025-.211.079-.062.051-.092.112-.092.18v5.865c0,.076.03.139.092.185.063.049.132.073.211.073h.959v-2.522h-.64v-1.34h2.204v5.187h-2.927c-.405,0-.747-.123-1.025-.365-.283-.245-.423-.542-.423-.887v-6.542c0-.346.141-.639.423-.879.279-.239.62-.361,1.025-.361h2.927v2.636h-1.564Z" fill="#fff"/><polygon points="103.812 85.093 103.812 87.613 105.596 87.613 105.596 88.953 103.812 88.953 103.812 91.477 106.169 91.477 106.169 92.8 102.248 92.8 102.248 83.765 106.169 83.765 106.169 85.093 103.812 85.093" fill="#fff"/><polygon points="112.059 83.766 112.059 92.8 110.626 92.8 109.097 87.93 109.097 92.8 107.549 92.8 107.549 83.766 109.027 83.766 110.527 88.652 110.527 83.766 112.059 83.766" fill="#fff"/><polygon points="115.373 85.093 115.373 87.613 117.156 87.613 117.156 88.953 115.373 88.953 115.373 91.477 117.729 91.477 117.729 92.8 113.808 92.8 113.808 83.765 117.729 83.765 117.729 85.093 115.373 85.093" fill="#fff"/><path d="M121.953,92.802l-.573-2.912h-.724v2.912h-1.548v-9.037h2.793c.404,0,.746.122,1.025.361s.42.532.42.879v3.63c0,.394-.173.716-.522.966l.674,3.201h-1.547ZM120.657,88.564h.841c.09,0,.164-.027.219-.079.055-.052.083-.113.083-.18v-2.953c0-.068-.028-.127-.083-.18-.056-.053-.13-.079-.219-.079h-.841v3.472Z" fill="#fff"/><polygon points="127.775 92.801 126.865 86.908 125.973 92.801 124.425 92.801 126.091 83.766 127.658 83.766 129.323 92.801 127.775 92.801" fill="#fff"/><polygon points="134.455 91.476 134.455 92.801 130.535 92.801 130.535 83.766 132.099 83.766 132.099 91.476 134.455 91.476" fill="#fff"/><path d="M140.648,83.766h2.456v1.327h-2.07c-.09,0-.164.025-.226.079-.063.051-.093.112-.093.18v5.865c0,.076.03.139.093.185.062.049.136.073.226.073h2.07v1.325h-2.456c-.416,0-.763-.123-1.044-.365-.279-.245-.421-.542-.421-.887v-6.542c0-.346.141-.639.421-.879.282-.239.629-.361,1.044-.361" fill="#fff"/><path d="M144.617,84.12c.282-.236.62-.354,1.01-.354h1.398c.393,0,.73.118,1.01.354.282.235.423.52.423.857v6.629c0,.326-.141.607-.423.843-.279.236-.617.352-1.01.352h-1.398c-.39,0-.728-.116-1.01-.352-.279-.236-.421-.517-.421-.843v-6.629c0-.336.141-.622.421-.857M146.824,85.164c-.055-.048-.124-.071-.203-.071h-.605c-.068,0-.125.023-.178.071-.049.048-.074.101-.074.158v5.922c0,.067.025.124.074.166.053.045.11.066.178.066h.605c.079,0,.148-.02.203-.066.056-.041.083-.099.083-.166v-5.922c0-.057-.027-.11-.083-.158Z" fill="#fff"/><polygon points="154.598 83.766 154.598 92.8 153.167 92.8 151.636 87.93 151.636 92.8 150.088 92.8 150.088 83.766 151.569 83.766 153.066 88.652 153.066 83.766 154.598 83.766" fill="#fff"/><polygon points="160.117 85.093 158.687 85.093 158.687 92.8 157.137 92.8 157.137 85.093 155.725 85.093 155.725 83.765 160.117 83.765 160.117 85.093" fill="#fff"/><path d="M164.089,92.802l-.573-2.912h-.723v2.912h-1.548v-9.037h2.793c.405,0,.747.122,1.027.361.279.24.42.532.42.879v3.63c0,.394-.173.716-.523.966l.675,3.201h-1.548ZM162.793,88.564h.841c.09,0,.162-.027.217-.079.058-.052.085-.113.085-.18v-2.953c0-.068-.027-.127-.085-.18-.056-.053-.127-.079-.217-.079h-.841v3.472Z" fill="#fff"/><polygon points="169.911 92.801 169.001 86.908 168.109 92.801 166.561 92.801 168.227 83.766 169.793 83.766 171.459 92.801 169.911 92.801" fill="#fff"/><path d="M174.016,83.766h2.456v1.327h-2.069c-.089,0-.164.025-.227.079-.062.051-.092.112-.092.18v5.865c0,.076.03.139.092.185.063.049.138.073.227.073h2.069v1.325h-2.456c-.416,0-.762-.123-1.044-.365-.28-.245-.42-.542-.42-.887v-6.542c0-.346.14-.639.42-.879.281-.239.628-.361,1.044-.361" fill="#fff"/><polygon points="181.454 85.093 180.024 85.093 180.024 92.8 178.475 92.8 178.475 85.093 177.061 85.093 177.061 83.765 181.454 83.765 181.454 85.093" fill="#fff"/><rect x="182.582" y="83.766" width="1.564" height="9.035" fill="#fff"/><polygon points="190.407 83.766 190.407 92.8 188.976 92.8 187.445 87.93 187.445 92.8 185.896 92.8 185.896 83.766 187.378 83.766 188.875 88.652 188.875 83.766 190.407 83.766" fill="#fff"/><path d="M194.849,86.402v-1.309h-.959c-.078,0-.148.025-.21.079-.063.051-.092.112-.092.18v5.865c0,.076.029.139.092.185.062.049.132.073.21.073h.959v-2.522h-.64v-1.34h2.204v5.187h-2.927c-.404,0-.746-.123-1.026-.365-.279-.245-.42-.542-.42-.887v-6.542c0-.346.141-.639.42-.879.28-.239.622-.361,1.026-.361h2.927v2.636h-1.564Z" fill="#fff"/><polygon points="204.694 92.801 203.783 86.908 202.894 92.801 201.343 92.801 203.009 83.766 204.576 83.766 206.241 92.801 204.694 92.801" fill="#fff"/><polygon points="211.963 83.766 211.963 92.8 210.533 92.8 209.001 87.93 209.001 92.8 207.453 92.8 207.453 83.766 208.932 83.766 210.431 88.652 210.431 83.766 211.963 83.766" fill="#fff"/><path d="M216.507,83.765c.404,0,.746.123,1.025.362.283.24.42.532.42.878v6.543c0,.344-.138.641-.42.886-.279.243-.621.366-1.025.366h-2.793v-9.035h2.793ZM216.322,85.172c-.056-.054-.13-.079-.219-.079h-.841v6.384h.841c.09,0,.164-.026.219-.075.055-.046.084-.109.084-.185v-5.865c0-.068-.029-.129-.084-.18Z" fill="#fff"/><polygon points="224.903 85.093 224.903 87.613 226.686 87.613 226.686 88.953 224.903 88.953 224.903 91.477 227.26 91.477 227.26 92.8 223.339 92.8 223.339 83.765 227.26 83.765 227.26 85.093 224.903 85.093" fill="#fff"/><polygon points="232.56 91.476 232.56 92.801 228.638 92.801 228.638 83.766 230.203 83.766 230.203 91.476 232.56 91.476" fill="#fff"/><polygon points="235.219 85.093 235.219 87.613 237.002 87.613 237.002 88.953 235.219 88.953 235.219 91.477 237.574 91.477 237.574 92.8 233.654 92.8 233.654 83.765 237.574 83.765 237.574 85.093 235.219 85.093" fill="#fff"/><path d="M240.3,83.766h2.456v1.327h-2.07c-.09,0-.164.025-.226.079-.063.051-.093.112-.093.18v5.865c0,.076.03.139.093.185.062.049.136.073.226.073h2.07v1.325h-2.456c-.416,0-.762-.123-1.044-.365-.279-.245-.42-.542-.42-.887v-6.542c0-.346.141-.639.42-.879.282-.239.629-.361,1.044-.361" fill="#fff"/><polygon points="247.737 85.093 246.307 85.093 246.307 92.8 244.759 92.8 244.759 85.093 243.345 85.093 243.345 83.765 247.737 83.765 247.737 85.093" fill="#fff"/><path d="M251.71,92.802l-.573-2.912h-.723v2.912h-1.549v-9.037h2.793c.404,0,.746.122,1.025.361.28.24.421.532.421.879v3.63c0,.394-.173.716-.522.966l.674,3.201h-1.547ZM250.414,88.564h.84c.09,0,.164-.027.217-.079.058-.052.086-.113.086-.18v-2.953c0-.068-.027-.127-.086-.18-.053-.053-.127-.079-.217-.079h-.84v3.472Z" fill="#fff"/><path d="M255.023,84.12c.282-.236.619-.354,1.01-.354h1.398c.393,0,.73.118,1.01.354.281.235.422.52.422.857v6.629c0,.326-.141.607-.422.843-.28.236-.617.352-1.01.352h-1.398c-.391,0-.728-.116-1.01-.352-.28-.236-.42-.517-.42-.843v-6.629c0-.336.14-.622.42-.857M257.229,85.164c-.055-.048-.124-.071-.203-.071h-.605c-.067,0-.125.023-.178.071-.048.048-.074.101-.074.158v5.922c0,.067.026.124.074.166.053.045.111.066.178.066h.605c.079,0,.148-.02.203-.066.056-.041.083-.099.083-.166v-5.922c0-.057-.027-.11-.083-.158Z" fill="#fff"/><polygon points="266.097 83.766 266.097 92.8 264.548 92.8 264.548 86.82 263.302 91.447 262.058 86.82 262.058 92.8 260.494 92.8 260.494 83.766 262.143 83.766 263.302 87.556 264.431 83.766 266.097 83.766" fill="#fff"/><polygon points="269.411 85.093 269.411 87.613 271.196 87.613 271.196 88.953 269.411 88.953 269.411 91.477 271.768 91.477 271.768 92.8 267.848 92.8 267.848 83.765 271.768 83.765 271.768 85.093 269.411 85.093" fill="#fff"/><path d="M274.493,83.766h2.456v1.327h-2.07c-.09,0-.164.025-.226.079-.063.051-.092.112-.092.18v5.865c0,.076.029.139.092.185.062.049.136.073.226.073h2.07v1.325h-2.456c-.416,0-.762-.123-1.044-.365-.279-.245-.42-.542-.42-.887v-6.542c0-.346.141-.639.42-.879.281-.239.628-.361,1.044-.361" fill="#fff"/><polygon points="282.503 83.766 282.503 92.8 280.955 92.8 280.955 88.953 279.726 88.953 279.726 92.8 278.162 92.8 278.162 83.766 279.726 83.766 279.726 87.613 280.955 87.613 280.955 83.766 282.503 83.766" fill="#fff"/><polygon points="287.064 92.801 286.156 86.908 285.264 92.801 283.714 92.801 285.38 83.766 286.946 83.766 288.612 92.801 287.064 92.801" fill="#fff"/><polygon points="294.334 83.766 294.334 92.8 292.903 92.8 291.371 87.93 291.371 92.8 289.823 92.8 289.823 83.766 291.304 83.766 292.801 88.652 292.801 83.766 294.334 83.766" fill="#fff"/><rect x="296.083" y="83.766" width="1.566" height="9.035" fill="#fff"/><path d="M300.744,83.766h2.456v1.327h-2.07c-.087,0-.164.025-.227.079-.059.051-.092.112-.092.18v5.865c0,.076.033.139.092.185.063.049.14.073.227.073h2.07v1.325h-2.456c-.416,0-.762-.123-1.042-.365-.282-.245-.421-.542-.421-.887v-6.542c0-.346.139-.639.421-.879.279-.239.626-.361,1.042-.361" fill="#fff"/><polygon points="307.224 92.801 306.313 86.908 305.422 92.801 303.874 92.801 305.54 83.766 307.106 83.766 308.772 92.801 307.224 92.801" fill="#fff"/><polygon points="313.904 91.476 313.904 92.801 309.984 92.801 309.984 83.766 311.548 83.766 311.548 91.476 313.904 91.476" fill="#fff"/><path d="M137.61,102.786v.869h-2.059v-2.424c.005-.157-.029-.307-.099-.445-.069-.139-.164-.261-.287-.366-.12-.107-.264-.192-.425-.253-.164-.065-.334-.095-.517-.095s-.356.03-.518.093c-.164.059-.305.144-.423.253-.123.105-.215.232-.287.375-.07.142-.104.299-.104.463v.983c0,.075.016.146.051.212.035.065.081.122.139.174.056.048.122.087.201.115.076.03.16.046.249.046h1.111v.869h-1.111c-.231,0-.444-.036-.645-.109-.203-.074-.379-.176-.529-.306-.153-.128-.27-.277-.358-.448-.086-.172-.129-.356-.129-.552v-.979c0-.285.062-.552.184-.801.125-.251.291-.467.504-.653.21-.186.459-.333.745-.443.287-.108.592-.162.915-.162.321,0,.626.055.913.162.287.11.536.257.751.443.217.186.387.4.508.647.122.247.186.506.181.78v1.553h1.037ZM132.968,97.913c0-.061.014-.119.04-.172.028-.053.064-.102.113-.142.048-.041.104-.073.166-.097.063-.024.13-.036.201-.036s.139.012.201.036c.065.024.12.055.169.097.048.04.085.089.111.142.027.054.041.111.041.172s-.014.12-.041.174c-.026.052-.063.101-.111.139-.049.041-.104.071-.169.095-.062.023-.13.036-.201.036s-.139-.012-.201-.036c-.062-.024-.118-.054-.166-.095-.049-.038-.086-.087-.113-.139-.026-.054-.04-.113-.04-.174ZM134.489,97.913c0-.061.014-.119.04-.172.027-.053.064-.102.113-.142.049-.041.104-.073.166-.097.063-.024.13-.036.204-.036.069,0,.139.012.198.036.063.024.118.055.167.097.046.04.081.089.109.142.027.054.042.111.042.172,0,.123-.052.228-.151.313-.101.087-.224.131-.365.131-.074,0-.14-.012-.204-.036-.062-.024-.117-.054-.166-.095-.049-.038-.086-.087-.113-.139-.026-.054-.04-.113-.04-.174Z" fill="#fff"/><path d="M139.92,99.196v3.589h1.042v.87h-3.803v-.87h1.74v-3.589h1.021ZM137.346,104.947c0-.062.014-.12.039-.172.028-.053.065-.103.114-.142.048-.044.104-.073.166-.097.063-.024.13-.036.201-.036.074,0,.139.012.204.036.063.023.118.053.166.097.048.039.085.089.114.142.024.052.038.111.038.172,0,.061-.014.12-.038.172-.029.054-.065.101-.114.14-.048.041-.104.071-.166.095-.064.024-.13.036-.204.036-.071,0-.138-.011-.201-.036-.062-.024-.117-.053-.166-.095-.049-.039-.086-.087-.114-.14-.025-.052-.039-.111-.039-.172ZM138.867,104.947c0-.062.014-.12.041-.172.025-.053.062-.103.113-.142.047-.044.105-.073.167-.097.063-.024.132-.036.204-.036.071,0,.138.012.201.036.062.023.117.053.166.097.046.039.083.089.111.142.025.052.039.111.039.172,0,.122-.051.227-.15.312-.102.085-.224.13-.367.13-.072,0-.141-.011-.204-.036-.062-.024-.12-.053-.167-.095-.051-.039-.087-.087-.113-.14-.028-.052-.041-.111-.041-.172Z" fill="#fff"/><path d="M145.131,98.016l-1.573,1.199c.077-.004.159-.01.239-.012.084-.004.164-.006.243-.006.24,0,.478.014.713.039.236.026.465.069.677.134.215.062.416.145.601.247.182.101.344.232.478.384.134.152.241.335.317.542.077.212.116.453.116.726v1.516h1.034v.87h-7.472v-.87h5.416v-1.517c0-.237-.055-.432-.164-.587-.109-.155-.252-.278-.429-.368-.178-.091-.379-.155-.606-.192-.224-.036-.453-.054-.681-.054-.21,0-.423.012-.633.038-.212.022-.411.053-.596.089-.187.034-.354.073-.499.113-.144.039-.256.073-.334.105l-.462-.722,2.885-2.287.731.614Z" fill="#fff"/><path d="M150.289,99.196v3.589h1.042v.87h-3.805v-.87h1.742v-3.589h1.021ZM147.716,104.947c0-.062.013-.12.039-.172.027-.053.064-.103.113-.142.049-.044.105-.073.166-.097.063-.024.13-.036.201-.036.074,0,.139.012.201.036.064.023.12.053.169.097.048.039.086.089.111.142.028.052.041.111.041.172,0,.061-.014.12-.041.172-.025.054-.063.101-.111.14-.049.041-.104.071-.169.095-.063.024-.127.036-.201.036-.071,0-.139-.011-.201-.036-.062-.024-.117-.053-.166-.095-.048-.039-.086-.087-.113-.14-.026-.052-.039-.111-.039-.172ZM149.236,104.947c0-.062.014-.12.041-.172.026-.053.062-.103.111-.142.049-.044.107-.073.169-.097.063-.024.129-.036.203-.036.072,0,.139.012.201.036.062.023.117.053.164.097.048.039.085.089.113.142.025.052.039.111.039.172,0,.122-.05.227-.151.312-.1.085-.222.13-.366.13-.074,0-.141-.011-.203-.036-.062-.024-.12-.053-.169-.095-.048-.039-.085-.087-.111-.14-.027-.052-.041-.111-.041-.172Z" fill="#fff"/><rect x="150.875" y="102.786" width="2.306" height=".868" fill="#fff"/><path d="M155.489,99.195v3.029c0,.2-.044.386-.132.56-.09.172-.21.322-.36.452-.15.13-.328.233-.531.308-.204.073-.419.111-.648.111h-1.09v-.869h1.09c.088,0,.173-.016.251-.046.079-.028.148-.067.206-.119.06-.051.107-.109.141-.176.033-.068.05-.14.05-.222v-3.029h1.021ZM154.447,97.913c0-.061.014-.119.039-.172.029-.053.065-.102.113-.142.049-.041.107-.073.169-.097.062-.024.129-.036.203-.036.072,0,.139.012.201.036.062.024.117.055.164.097.049.04.086.089.111.142.028.054.041.111.041.172,0,.123-.05.228-.152.313-.099.087-.221.131-.365.131-.074,0-.141-.012-.203-.036-.063-.024-.12-.054-.169-.095-.048-.038-.085-.087-.113-.139-.024-.054-.039-.113-.039-.174Z" fill="#fff"/><path d="M157.633,97.467v4.762c0,.077.016.148.05.218.035.067.081.124.141.173.058.053.127.091.206.121.078.03.162.044.251.044h.478v.87h-.478c-.229,0-.446-.04-.647-.113-.201-.075-.381-.179-.531-.307-.153-.129-.273-.281-.36-.451-.087-.175-.132-.36-.132-.556v-4.762h1.021Z" fill="#fff"/><path d="M162.935,98.016l-1.573,1.199c.079-.004.16-.01.24-.012.083-.004.164-.006.243-.006.24,0,.478.014.714.039.236.026.463.069.677.134.215.062.416.145.601.247.183.101.342.232.476.384.137.152.24.335.319.542.076.212.115.453.115.726v1.516h1.035v.87h-7.471v-.87h5.416v-1.517c0-.237-.056-.432-.164-.587-.109-.155-.251-.278-.429-.368-.179-.091-.379-.155-.606-.192-.224-.036-.453-.054-.681-.054-.211,0-.423.012-.635.038-.211.022-.41.053-.594.089-.187.034-.354.073-.499.113-.143.039-.256.073-.334.105l-.463-.722,2.886-2.287.73.614Z" fill="#fff"/><path d="M168.092,99.196v3.589h1.042v.87h-3.803v-.87h1.74v-3.589h1.021ZM165.519,104.947c0-.062.014-.12.041-.172.026-.053.065-.103.113-.142.046-.044.103-.073.167-.097.062-.024.129-.036.201-.036.071,0,.138.012.2.036.063.023.118.053.166.097.05.039.088.089.113.142.029.052.04.111.04.172,0,.061-.011.12-.04.172-.025.054-.064.101-.113.14-.048.041-.103.071-.166.095-.063.024-.129.036-.2.036-.072,0-.139-.011-.201-.036-.063-.024-.121-.053-.167-.095-.048-.039-.087-.087-.113-.14-.028-.052-.041-.111-.041-.172ZM167.04,104.947c0-.062.014-.12.041-.172.028-.053.065-.103.113-.142.048-.044.104-.073.169-.097.063-.024.13-.036.201-.036.072,0,.141.012.203.036.063.023.118.053.164.097.047.039.084.089.111.142.028.052.041.111.041.172,0,.122-.051.227-.153.312-.101.085-.221.13-.367.13-.071,0-.139-.011-.201-.036-.064-.024-.12-.053-.169-.095-.048-.039-.086-.087-.113-.14-.027-.052-.041-.111-.041-.172Z" fill="#fff"/><rect x="168.679" y="102.786" width="2.305" height=".868" fill="#fff"/><path d="M170.532,102.785h1.123c-.027-.09-.05-.18-.064-.275-.014-.091-.021-.186-.021-.284v-.993c0-.279.06-.542.182-.79.122-.245.289-.461.501-.645.211-.182.457-.328.74-.435.282-.107.584-.161.908-.161.321,0,.622.054.906.166.283.109.532.257.742.443.212.187.379.404.501.649.123.246.183.502.183.772v1.003c0,.271-.06.53-.183.775-.122.245-.289.463-.499.647-.212.184-.46.333-.741.443-.284.111-.585.166-.906.166-.332,0-.64-.054-.922-.163-.281-.107-.527-.257-.739-.449h-1.71v-.87ZM173.9,100.071c-.182,0-.353.032-.512.093-.16.059-.298.142-.416.249-.118.103-.213.226-.28.366-.07.142-.101.293-.101.453v.995c0,.162.032.314.101.455.067.142.162.265.28.372.118.107.256.19.416.251.16.061.33.093.512.093.18,0,.349-.032.508-.093.16-.061.298-.144.419-.251.12-.106.215-.229.281-.372.07-.141.103-.289.103-.445v-1.005c0-.156-.033-.304-.103-.445-.067-.14-.162-.263-.281-.368-.12-.107-.259-.19-.419-.253-.159-.063-.328-.095-.508-.095Z" fill="#fff"/><path d="M178.117,104.514h1.602c.154,0,.302-.022.443-.063.143-.044.268-.102.381-.18.116-.077.21-.168.291-.271.08-.103.139-.22.173-.346h-1.991c-.226,0-.439-.036-.64-.109-.201-.073-.376-.174-.526-.303-.15-.127-.268-.275-.358-.447-.088-.172-.132-.356-.132-.55v-.985c0-.285.063-.552.187-.801.124-.251.291-.467.501-.653.21-.186.46-.333.747-.442.286-.109.591-.164.914-.164.217,0,.427.026.628.077.201.049.389.12.562.211.173.09.333.198.478.323.146.126.268.265.37.415.104.148.182.309.238.481.055.172.081.348.081.531v2.137c0,.275-.061.536-.185.781-.122.245-.292.459-.501.641-.212.178-.46.322-.746.427-.286.107-.591.159-.914.159h-1.602v-.869ZM181.046,102.786v-1.551c0-.156-.037-.305-.103-.447-.072-.141-.167-.264-.289-.369-.122-.107-.264-.191-.427-.252-.162-.063-.335-.095-.518-.095s-.355.032-.515.093c-.162.059-.303.145-.423.254-.12.105-.215.232-.284.375-.072.142-.107.301-.107.465v.986c0,.073.019.142.054.207.032.066.077.125.136.174.058.048.122.087.201.116.076.028.156.044.245.044h2.03Z" fill="#fff"/><path d="M185.113,99.196v3.589h1.037v.87h-1.097c-.033.121-.086.261-.16.414-.076.152-.187.311-.335.47-.146.163-.337.319-.576.475-.236.157-.529.295-.88.42l-.393-.803c.181-.063.338-.133.474-.206.136-.075.254-.153.351-.23.099-.079.183-.156.244-.233.064-.075.12-.148.162-.219.097-.166.148-.333.15-.501v-4.045h1.021Z" fill="#fff"/><path d="M185.698,103.654v-.868h1.037v-.935c0-.178.032-.344.099-.503.067-.158.157-.3.273-.425.116-.129.249-.237.407-.322.154-.087.323-.153.506-.192.109-.184.257-.35.444-.501.189-.148.402-.279.637-.382.239-.107.49-.188.758-.245.27-.057.538-.085.807-.085.317,0,.622.038.915.115.294.077.554.2.778.365.226.167.406.382.546.646.136.263.203.581.203.949v1.514h1.053v.868h-8.462ZM187.756,102.786h1.29v-.948c.005-.083-.012-.162-.046-.233-.035-.073-.081-.134-.139-.19-.059-.057-.129-.099-.207-.13-.079-.028-.162-.044-.252-.044-.09,0-.173.016-.251.048-.079.032-.148.075-.204.131-.058.055-.103.12-.139.194-.035.076-.051.156-.051.241v.932ZM190.067,102.786h2.021v-1.514c0-.216-.042-.4-.122-.552-.082-.155-.187-.279-.317-.374-.132-.097-.283-.168-.455-.213-.17-.044-.348-.066-.531-.066-.139,0-.28.01-.423.032-.141.022-.278.052-.409.091-.129.038-.252.086-.368.147-.113.059-.215.124-.304.2.136.061.26.136.374.225.111.087.209.188.286.298.079.113.141.234.183.366.044.133.065.267.065.41v.95Z" fill="#fff"/><path d="M198.33,98.016l-1.576,1.199c.08-.004.159-.01.242-.012.082-.004.164-.006.243-.006.24,0,.478.014.714.039.236.026.461.069.676.134.215.062.416.145.599.247.185.101.344.232.478.384.134.152.24.335.317.542.079.212.116.453.116.726v1.516h1.037v.87h-7.472v-.87h5.416v-1.517c0-.237-.055-.432-.164-.587-.111-.155-.254-.278-.432-.368-.175-.091-.378-.155-.603-.192-.226-.036-.453-.054-.681-.054-.213,0-.423.012-.636.038-.21.022-.408.053-.596.089-.185.034-.351.073-.496.113-.145.039-.257.073-.336.105l-.461-.722,2.885-2.287.73.614Z" fill="#fff"/><rect x="200.725" y="102.786" width="2.306" height=".868" fill="#fff"/><path d="M204.727,97.467v4.762c0,.195-.044.381-.132.556-.088.17-.205.322-.355.451-.151.128-.328.232-.532.307-.205.073-.422.113-.651.113h-.478v-.87h.476c.087,0,.173-.014.254-.044.081-.03.15-.068.21-.121.058-.049.104-.107.139-.173.032-.07.05-.141.05-.218v-4.762h1.019Z" fill="#fff"/><rect x="205.857" y="97.465" width="1.02" height="6.188" fill="#fff"/><path d="M208.758,104.514h1.601c.152,0,.303-.022.443-.063.141-.044.268-.102.381-.18.113-.077.209-.168.289-.271.082-.103.139-.22.176-.346h-1.994c-.227,0-.439-.036-.64-.109-.201-.073-.374-.174-.527-.303-.15-.127-.268-.275-.355-.447-.087-.172-.132-.356-.132-.55v-.985c0-.285.063-.552.185-.801.125-.251.291-.467.504-.653.21-.186.458-.333.747-.442.286-.109.591-.164.912-.164.22,0,.428.026.629.077.201.049.387.12.561.211.173.09.332.198.478.323.146.126.268.265.37.415.103.148.182.309.238.481.056.172.083.348.083.531v2.137c0,.275-.063.536-.185.781-.125.245-.291.459-.501.641-.212.178-.462.322-.749.427-.286.107-.591.159-.912.159h-1.601v-.869ZM211.685,102.786v-1.551c0-.156-.035-.305-.104-.447-.071-.141-.167-.264-.286-.369-.125-.107-.266-.191-.427-.252-.164-.063-.338-.095-.521-.095s-.353.032-.515.093c-.161.059-.303.145-.423.254-.12.105-.215.232-.284.375-.069.142-.104.301-.104.465v.986c0,.073.016.142.051.207.032.066.079.125.136.174.058.048.124.087.201.116.079.028.159.044.245.044h2.03Z" fill="#fff"/><path d="M221.324,102.786v.869h-2.059v-2.424c.005-.157-.028-.307-.099-.445-.069-.139-.164-.261-.286-.366-.121-.107-.264-.192-.426-.253-.162-.065-.334-.095-.517-.095-.182,0-.355.03-.518.093-.163.059-.305.144-.423.253-.12.105-.215.232-.286.375-.069.142-.102.299-.102.463v.983c0,.075.016.146.051.212.033.065.078.122.136.174.058.048.122.087.201.115.077.03.16.046.249.046h1.112v.869h-1.112c-.228,0-.443-.036-.644-.109-.201-.074-.376-.176-.529-.306-.15-.128-.27-.277-.358-.448-.086-.172-.127-.356-.127-.552v-.979c0-.285.06-.552.186-.801.122-.251.29-.467.501-.653.21-.186.459-.333.748-.443.285-.108.59-.162.913-.162.321,0,.626.055.913.162.287.11.538.257.751.443.217.186.386.4.508.647.124.247.185.506.18.78v1.553h1.037ZM216.682,97.913c0-.061.013-.119.039-.172.028-.053.064-.102.113-.142.049-.041.104-.073.166-.097s.132-.036.201-.036c.072,0,.139.012.203.036.062.024.118.055.166.097.048.04.085.089.114.142.024.054.039.111.039.172s-.015.12-.039.174c-.029.052-.065.101-.114.139-.048.041-.104.071-.166.095-.065.023-.131.036-.203.036-.069,0-.139-.012-.201-.036-.063-.024-.117-.054-.166-.095-.048-.038-.085-.087-.113-.139-.026-.054-.039-.113-.039-.174ZM218.202,97.913c0-.061.013-.119.041-.172.026-.053.062-.102.111-.142.048-.041.103-.073.167-.097.064-.024.128-.036.203-.036.072,0,.139.012.201.036.063.024.118.055.164.097.046.04.083.089.111.142.026.054.039.111.039.172,0,.123-.051.228-.15.313-.102.087-.222.131-.366.131-.074,0-.138-.012-.203-.036-.063-.024-.118-.054-.167-.095-.049-.038-.086-.087-.111-.139-.028-.054-.041-.113-.041-.174Z" fill="#fff"/><path d="M220.872,102.785h1.123c-.029-.09-.052-.18-.065-.275-.013-.091-.021-.186-.021-.284v-.993c0-.279.06-.542.183-.79.122-.245.289-.461.501-.645.211-.182.457-.328.739-.435.282-.107.584-.161.908-.161.319,0,.622.054.906.166.282.109.531.257.741.443.213.187.379.404.502.649.122.246.182.502.182.772v1.003c0,.271-.06.53-.182.775-.123.245-.289.463-.502.647-.21.184-.457.333-.739.443-.284.111-.584.166-.906.166-.332,0-.64-.054-.921-.163-.282-.107-.527-.257-.739-.449h-1.71v-.87ZM224.241,100.071c-.183,0-.353.032-.512.093-.16.059-.298.142-.416.249-.118.103-.213.226-.28.366-.069.142-.101.293-.101.453v.995c0,.162.032.314.101.455.067.142.162.265.28.372.117.107.256.19.416.251.159.061.33.093.512.093.18,0,.349-.032.508-.093.159-.061.298-.144.418-.251.121-.106.215-.229.283-.372.069-.141.101-.289.101-.445v-1.005c0-.156-.032-.304-.101-.445-.067-.14-.162-.263-.283-.368-.12-.107-.259-.19-.418-.253-.159-.063-.328-.095-.508-.095Z" fill="#fff"/><path d="M228.722,97.467v4.762c0,.077.016.148.051.218.034.067.08.124.141.173.058.053.127.091.206.121.078.03.164.044.251.044h.478v.87h-.478c-.229,0-.444-.04-.647-.113-.2-.075-.379-.179-.531-.307-.153-.129-.272-.281-.36-.451-.088-.175-.132-.36-.132-.556v-4.762h1.021Z" fill="#fff"/><rect x="229.399" y="102.786" width="2.306" height=".868" fill="#fff"/><path d="M237.979,103.654h-6.722v-.869h2.042c-.155-.154-.303-.323-.439-.507-.141-.184-.257-.384-.351-.607-.06-.142-.107-.287-.141-.432-.034-.148-.053-.295-.053-.441,0-.215.042-.424.12-.617.079-.194.208-.364.388-.508.183-.149.419-.262.712-.347.296-.083.658-.126,1.09-.126.437,0,.807.043,1.102.129.298.087.536.202.719.35.18.147.31.319.388.513.079.198.118.405.118.627,0,.144-.016.285-.047.427-.032.141-.076.279-.13.418-.085.222-.2.424-.342.612-.141.187-.286.356-.438.51h1.984v.869ZM233.465,101.373c.067.157.15.303.25.441.096.138.203.265.314.382.111.116.22.219.33.311.109.091.206.166.291.227.085-.061.183-.136.291-.225.111-.089.217-.19.326-.305.106-.116.207-.243.305-.38.097-.139.175-.285.235-.441.083-.198.122-.386.122-.565,0-.104-.02-.198-.064-.289-.044-.091-.118-.17-.222-.237-.101-.068-.236-.121-.4-.16-.169-.04-.372-.059-.615-.059s-.448.02-.612.057c-.164.04-.296.089-.397.156-.1.065-.172.143-.217.232-.044.088-.067.182-.067.281,0,.096.011.192.035.286.024.097.055.194.094.289Z" fill="#fff"/><rect x="237.526" y="102.786" width="2.306" height=".868" fill="#fff"/><path d="M241.53,97.467v4.762c0,.195-.044.381-.132.556-.088.17-.206.322-.356.451-.153.128-.33.232-.534.307-.203.073-.42.113-.649.113h-.478v-.87h.476c.088,0,.174-.014.255-.044.078-.03.15-.068.208-.121.057-.049.104-.107.139-.173.035-.07.05-.141.05-.218v-4.762h1.022Z" fill="#fff"/><rect x="242.658" y="97.465" width="1.021" height="6.188" fill="#fff"/><path d="M253.07,99.195v3.029c0,.2-.042.386-.13.56-.085.172-.203.322-.353.452-.152.13-.328.233-.529.308-.204.073-.421.111-.65.111h-2.491c-.328,0-.637-.052-.924-.159-.286-.105-.538-.251-.753-.431-.215-.184-.383-.398-.508-.643-.122-.245-.185-.508-.185-.787v-1.622h1.021v1.622c0,.161.035.308.104.449.069.14.166.261.289.365.12.105.263.188.425.247.164.06.34.09.529.09h2.488c.09,0,.175-.016.252-.046.078-.028.148-.067.205-.119.058-.051.104-.109.136-.176.035-.068.051-.14.051-.222v-3.029h1.021ZM248.53,97.913c0-.061.014-.119.039-.172.028-.053.065-.102.116-.142.047-.041.104-.073.164-.097.062-.024.132-.036.201-.036.073,0,.141.012.203.036.062.024.118.055.166.097.049.04.086.089.113.142.026.054.04.111.04.172s-.014.12-.04.174c-.028.052-.064.101-.113.139-.048.041-.104.071-.166.095-.062.023-.13.036-.203.036-.069,0-.139-.012-.201-.036-.061-.024-.118-.054-.164-.095-.05-.038-.088-.087-.116-.139-.025-.054-.039-.113-.039-.174ZM250.05,97.913c0-.061.014-.119.041-.172.025-.053.065-.102.111-.142.048-.041.104-.073.169-.097.063-.024.13-.036.201-.036.072,0,.139.012.201.036.062.024.118.055.164.097.046.04.083.089.11.142.026.054.039.111.039.172,0,.123-.051.228-.15.313-.103.087-.222.131-.366.131-.071,0-.139-.012-.201-.036-.064-.024-.12-.054-.169-.095-.046-.038-.086-.087-.111-.139-.028-.054-.041-.113-.041-.174Z" fill="#fff"/><path d="M256.18,99.196v3.589h1.587c.09,0,.173-.014.251-.044.079-.03.148-.067.206-.121.06-.049.107-.107.139-.173.035-.07.051-.143.051-.224v-4.755h1.023v4.755c0,.202-.046.388-.132.56-.09.172-.208.324-.36.453-.15.128-.326.231-.529.306-.203.073-.418.113-.649.113h-3.574v-.87h.966v-3.589h1.021Z" fill="#fff"/><path d="M261.315,104.514h1.601c.156,0,.303-.022.446-.063.141-.044.268-.102.381-.18.111-.077.208-.168.289-.271.081-.103.139-.22.175-.346h-1.994c-.226,0-.439-.036-.639-.109-.201-.073-.377-.174-.527-.303-.15-.127-.268-.275-.356-.447-.09-.172-.131-.356-.131-.55v-.985c0-.285.062-.552.184-.801.123-.251.291-.467.502-.653.212-.186.459-.333.745-.442.289-.109.592-.164.915-.164.217,0,.427.026.629.077.201.049.388.12.561.211.173.09.333.198.478.323.145.126.268.265.37.415.103.148.18.309.238.481.056.172.083.348.083.531v2.137c0,.275-.062.536-.187.781-.122.245-.291.459-.501.641-.211.178-.46.322-.747.427-.286.107-.592.159-.915.159h-1.601v-.869ZM264.245,102.786v-1.551c0-.156-.035-.305-.104-.447-.071-.141-.166-.264-.289-.369-.123-.107-.264-.191-.425-.252-.164-.063-.337-.095-.52-.095s-.354.032-.516.093c-.162.059-.302.145-.422.254-.121.105-.215.232-.285.375-.069.142-.106.301-.106.465v.986c0,.073.018.142.053.207.033.066.079.125.137.174.058.048.124.087.201.116.076.028.157.044.244.044h2.031Z" fill="#fff"/><path d="M267.42,97.467v4.762c0,.077.016.148.051.218.035.067.081.124.141.173.059.053.127.091.205.121.079.03.162.044.252.044h.478v.87h-.478c-.228,0-.446-.04-.647-.113-.201-.075-.381-.179-.531-.307-.153-.129-.273-.281-.361-.451-.088-.175-.132-.36-.132-.556v-4.762h1.021Z" fill="#fff"/><path d="M268.098,103.654v-.869h1.042v-1.594c0-.285.06-.549.182-.79.122-.244.287-.455.497-.634.21-.178.455-.32.739-.42.281-.101.582-.154.903-.154s.624.054.908.157c.282.101.529.244.739.419.213.178.379.388.504.625.122.239.186.494.186.767v1.623h1.037v.869h-6.736ZM270.161,102.786h2.61v-1.625c0-.155-.035-.297-.102-.429-.069-.136-.162-.249-.279-.348-.118-.099-.256-.176-.416-.232-.16-.058-.328-.085-.513-.085-.178,0-.347.027-.506.085-.159.055-.298.134-.413.235-.12.104-.213.22-.28.358-.067.135-.101.283-.101.443v1.597ZM270.186,97.913c0-.061.014-.119.041-.172.029-.053.065-.102.114-.142.048-.041.104-.073.164-.097.064-.024.132-.036.203-.036s.139.012.2.036c.065.024.118.055.167.097.049.04.088.089.113.142.028.054.04.111.04.172s-.012.12-.04.174c-.026.052-.064.101-.113.139-.048.041-.101.071-.167.095-.062.023-.129.036-.2.036s-.139-.012-.203-.036c-.061-.024-.116-.054-.164-.095-.048-.038-.085-.087-.114-.139-.027-.054-.041-.113-.041-.174ZM271.702,97.913c0-.061.013-.119.041-.172.026-.053.063-.102.111-.142.049-.041.104-.073.169-.097.063-.024.13-.036.201-.036.072,0,.139.012.201.036.062.024.117.055.164.097.045.04.083.089.108.142.028.054.041.111.041.172,0,.123-.051.228-.149.313-.103.087-.222.131-.366.131-.071,0-.139-.012-.201-.036-.064-.024-.119-.054-.169-.095-.048-.038-.086-.087-.111-.139-.027-.054-.041-.113-.041-.174Z" fill="#fff"/><path d="M274.382,102.785h1.122c-.027-.09-.048-.18-.064-.275-.014-.091-.021-.186-.021-.284v-.993c0-.279.063-.542.183-.79.122-.245.289-.461.499-.645.208-.182.455-.328.739-.435.282-.107.584-.161.904-.161s.621.054.903.166c.284.106.531.255.744.443.215.187.381.404.504.647.122.245.183.504.183.773v1.003c.004.097-.003.19-.021.283-.018.091-.041.18-.069.267h1.127v.87h-1.707c-.217.186-.465.335-.751.446-.284.111-.586.166-.91.166-.326,0-.629-.054-.911-.163-.282-.107-.529-.257-.744-.449h-1.709v-.87ZM277.746,100.071c-.178,0-.349.032-.508.093-.16.059-.298.142-.416.249-.118.103-.211.226-.28.366-.067.142-.101.293-.101.453v.995c0,.162.035.314.101.455.069.142.162.265.28.372.117.107.256.19.416.251.16.061.33.093.508.093.18,0,.349-.032.507-.093.16-.061.299-.144.419-.251.12-.106.215-.229.282-.372.069-.141.102-.289.102-.445v-1.005c0-.156-.033-.304-.102-.445-.067-.14-.162-.263-.282-.368-.12-.107-.258-.19-.419-.253-.159-.063-.327-.095-.507-.095Z" fill="#fff"/><rect x="280.662" y="102.786" width="2.306" height=".868" fill="#fff"/><polygon points="284.574 97.467 284.574 102.785 285.612 102.785 285.612 103.655 282.516 103.655 282.516 102.785 283.553 102.785 283.553 97.467 284.574 97.467" fill="#fff"/><rect x="285.16" y="102.786" width="2.306" height=".868" fill="#fff"/><path d="M289.163,97.467v4.762c0,.195-.046.381-.131.556-.087.17-.208.322-.359.451-.15.128-.328.232-.531.307-.206.073-.421.113-.652.113h-.478v-.87h.478c.088,0,.173-.014.252-.044.08-.03.15-.068.21-.121.058-.049.104-.107.139-.173.033-.07.051-.141.051-.218v-4.762h1.02Z" fill="#fff"/><path d="M299.703,99.196v3.589h1.301v-3.589h1.021v3.589h1.037v.87h-5.706c-.044.285-.147.534-.314.752-.166.215-.37.396-.612.54-.243.145-.511.254-.809.325-.298.072-.598.109-.907.109-.338,0-.666-.044-.987-.125-.321-.083-.606-.207-.857-.377-.25-.169-.451-.376-.603-.628-.153-.249-.228-.544-.228-.882v-3.357h1.02v3.357c0,.192.046.358.141.5.097.142.22.261.375.356.154.095.33.166.529.213.198.05.402.073.61.073.203,0,.406-.023.605-.073.199-.047.374-.118.529-.213.152-.095.277-.214.372-.356.095-.143.143-.309.143-.5v-4.172h1.021v3.589h1.3v-3.589h1.019Z" fill="#fff"/><path d="M305.371,99.196v3.027c0,.202-.043.386-.131.56-.09.172-.209.322-.359.453-.152.128-.329.232-.53.306-.206.073-.421.112-.65.112h-1.091v-.87h1.091c.09,0,.173-.016.252-.044.078-.03.148-.067.207-.12.058-.049.107-.106.139-.176.035-.067.051-.14.051-.222v-3.027h1.02ZM302.809,104.947c0-.062.013-.12.039-.172.027-.053.064-.103.113-.142.048-.044.103-.073.166-.097.063-.024.132-.036.2-.036.074,0,.139.012.204.036.062.023.118.053.166.097.048.039.085.089.114.142.025.052.039.111.039.172,0,.061-.014.12-.039.172-.029.054-.065.101-.114.14-.048.041-.104.071-.166.095-.065.024-.13.036-.204.036-.069,0-.138-.011-.2-.036-.063-.024-.117-.053-.166-.095-.05-.039-.086-.087-.113-.14-.026-.052-.039-.111-.039-.172ZM304.329,104.947c0-.062.013-.12.042-.172.024-.053.062-.103.112-.142.047-.044.105-.073.167-.097.065-.024.132-.036.204-.036.071,0,.138.012.201.036.064.023.117.053.167.097.045.039.083.089.111.142.025.052.039.111.039.172,0,.122-.051.227-.149.312-.102.085-.224.13-.368.13-.072,0-.139-.011-.204-.036-.062-.024-.12-.053-.167-.095-.05-.039-.088-.087-.112-.14-.029-.052-.042-.111-.042-.172Z" fill="#fff"/><rect x="306.494" y="97.465" width="1.021" height="6.188" fill="#fff"/><path d="M310.673,99.196c.624,0,1.155.045,1.596.137.442.089.802.223,1.081.4.28.176.488.393.617.65.132.256.199.552.199.887v1.515h1.035v.87h-4.817v-.87h2.761v-1.517c0-.194-.046-.364-.141-.512-.092-.149-.237-.277-.436-.378-.198-.103-.453-.18-.767-.233-.31-.051-.686-.077-1.127-.077v-.87Z" fill="#fff"/><rect x="314.746" y="102.786" width="2.303" height=".868" fill="#fff"/><path d="M318.749,97.467v4.762c0,.195-.044.381-.132.556-.088.17-.206.322-.358.451-.15.128-.328.232-.531.307-.203.073-.42.113-.652.113h-.476v-.87h.476c.087,0,.174-.014.254-.044.079-.03.151-.068.209-.121.058-.049.104-.107.138-.173.035-.07.051-.141.051-.218v-4.762h1.021Z" fill="#fff"/><rect x="319.877" y="97.465" width="1.019" height="6.188" fill="#fff"/><path d="M323.934,99.196v3.589h1.036v.87h-1.095c-.033.121-.086.261-.162.414-.073.152-.185.311-.332.47-.146.163-.338.319-.576.475-.236.157-.529.295-.881.42l-.393-.803c.181-.063.338-.133.474-.206.136-.075.251-.153.351-.23.1-.079.18-.156.245-.233.064-.075.118-.148.162-.219.097-.166.145-.333.15-.501v-4.045h1.021Z" fill="#fff"/><path d="M327.281,99.196v3.589h1.042v.87h-3.803v-.87h1.74v-3.589h1.021ZM324.707,104.947c0-.062.014-.12.039-.172.028-.053.065-.103.114-.142.048-.044.103-.073.166-.097.062-.024.132-.036.201-.036.073,0,.138.012.203.036.062.023.117.053.166.097.049.039.086.089.111.142.029.052.042.111.042.172,0,.061-.014.12-.042.172-.025.054-.062.101-.111.14-.048.041-.104.071-.166.095-.065.024-.13.036-.203.036-.069,0-.139-.011-.201-.036-.063-.024-.118-.053-.166-.095-.048-.039-.086-.087-.114-.14-.025-.052-.039-.111-.039-.172ZM326.227,104.947c0-.062.014-.12.042-.172.025-.053.064-.103.111-.142.05-.044.106-.073.169-.097.064-.024.13-.036.203-.036.071,0,.139.012.201.036.065.023.12.053.167.097.046.039.083.089.111.142.026.052.039.111.039.172,0,.122-.051.227-.15.312-.101.085-.224.13-.368.13-.073,0-.139-.011-.203-.036-.063-.024-.118-.053-.169-.095-.046-.039-.086-.087-.111-.14-.028-.052-.042-.111-.042-.172Z" fill="#fff"/><rect x="327.867" y="102.786" width="2.306" height=".868" fill="#fff"/><path d="M329.72,102.785h1.123c-.03-.09-.051-.18-.065-.275-.013-.091-.021-.186-.021-.284v-.993c0-.279.061-.542.183-.79.122-.245.289-.461.501-.645.211-.182.457-.328.739-.435.283-.107.585-.161.908-.161.319,0,.622.054.906.166.282.109.531.257.741.443.213.187.379.404.501.649.12.246.182.502.182.772v1.003c0,.271-.062.53-.182.775-.122.245-.289.463-.501.647-.21.184-.457.333-.741.443-.282.111-.585.166-.904.166-.333,0-.64-.054-.921-.163-.282-.107-.527-.257-.739-.449h-1.71v-.87ZM333.088,100.071c-.183,0-.353.032-.513.093-.16.059-.3.142-.416.249-.12.103-.213.226-.279.366-.069.142-.101.293-.101.453v.995c0,.162.032.314.101.455.067.142.159.265.279.372.116.107.256.19.416.251.16.061.33.093.513.093.177,0,.347-.032.506-.093.162-.061.301-.144.421-.251.12-.106.215-.229.282-.372.067-.141.102-.289.102-.445v-1.005c0-.156-.035-.304-.102-.445-.067-.14-.162-.263-.282-.368-.12-.107-.259-.19-.421-.253-.159-.063-.328-.095-.506-.095Z" fill="#fff"/><rect x="336.548" y="97.465" width="1.021" height="6.188" fill="#fff"/><rect x="312.147" y="90.132" width="1.683" height=".48" fill="#fff"/><polygon points="319.683 92.17 319.683 92.832 317.722 92.832 317.722 88.316 318.505 88.316 318.505 92.17 319.683 92.17" fill="#fff"/><path d="M320.029,92.515c0-.096.04-.178.118-.245.078-.068.173-.101.286-.101.111,0,.208.034.286.101.079.067.118.148.118.245,0,.101-.039.186-.118.251-.078.067-.175.103-.286.103-.114,0-.208-.036-.286-.103-.079-.065-.118-.151-.118-.251" fill="#fff"/><polygon points="323.453 92.17 323.453 92.832 321.493 92.832 321.493 88.316 322.274 88.316 322.274 92.17 323.453 92.17" fill="#fff"/><path d="M323.798,92.515c0-.096.039-.178.117-.245.079-.068.173-.101.286-.101.111,0,.209.034.287.101.078.067.117.148.117.245,0,.101-.039.186-.117.251-.079.067-.176.103-.287.103-.113,0-.207-.036-.286-.103-.078-.065-.117-.151-.117-.251" fill="#fff"/><path d="M325.936,88.315h1.229v.663h-1.038c-.044,0-.082.014-.111.038-.033.027-.048.059-.048.091v2.934c0,.038.016.069.048.093.029.024.067.036.111.036h1.038v.663h-1.229c-.208,0-.383-.059-.523-.184-.141-.12-.21-.27-.21-.441v-3.274c0-.17.069-.318.21-.437.139-.12.315-.18.523-.18" fill="#fff"/><rect x="324.28" y="90.132" width="1.683" height=".48" fill="#fff"/><path d="M331.711,90.427c.143.123.215.273.215.447v1.332c0,.172-.072.322-.215.443-.143.125-.317.184-.518.184h-1.187v-.663h.993c.039,0,.074-.012.106-.038.03-.022.046-.053.046-.093v-.998c0-.04-.016-.073-.046-.095-.032-.025-.067-.038-.106-.038h-.389c-.198,0-.372-.059-.51-.184-.141-.12-.213-.268-.213-.44v-1.349c0-.172.072-.319.213-.439.139-.119.312-.178.51-.178h1.229v.663h-1.035c-.039,0-.074.012-.104.038-.032.027-.048.057-.048.091v1.001c0,.034.016.066.048.091.03.026.065.038.104.038h.388c.201,0,.374.065.518.19" fill="#fff"/><path d="M332.455,92.515c0-.096.04-.178.118-.245.078-.068.173-.101.287-.101.111,0,.207.034.286.101.079.067.117.148.117.245,0,.101-.039.186-.117.251-.079.067-.175.103-.286.103-.114,0-.209-.036-.287-.103-.079-.065-.118-.151-.118-.251" fill="#fff"/><path d="M335.259,88.317c.201,0,.374.059.516.177.143.12.215.268.215.439v1.817c0,.173-.072.32-.215.445-.142.12-.315.181-.516.181h-.617v1.456h-.781v-4.516h1.398ZM335.168,89.017c-.025-.026-.062-.04-.113-.04h-.413v1.737h.413c.052,0,.088-.011.113-.039.026-.029.039-.056.039-.091v-1.475c0-.034-.013-.063-.039-.091Z" fill="#fff"/><path d="M336.587,92.515c0-.096.039-.178.117-.245.079-.068.174-.101.287-.101s.208.034.287.101c.078.067.117.148.117.245,0,.101-.039.186-.117.251-.079.067-.174.103-.287.103s-.208-.036-.287-.103c-.078-.065-.117-.151-.117-.251" fill="#fff"/><path d="M338.724,88.315h1.229v.663h-1.036c-.046,0-.083.014-.114.038-.032.027-.046.059-.046.091v2.934c0,.038.014.069.046.093.031.024.067.036.114.036h1.036v.663h-1.229c-.209,0-.381-.059-.523-.184-.141-.12-.211-.27-.211-.441v-3.274c0-.17.069-.318.211-.437.141-.12.314-.18.523-.18" fill="#fff"/><polygon points="128.379 91.481 126.572 91.481 126.75 90.188 128.379 90.188 128.379 91.481" fill="#fff"/><polygon points="170.521 91.481 168.714 91.481 168.891 90.188 170.521 90.188 170.521 91.481" fill="#fff"/><polygon points="205.361 91.481 203.554 91.481 203.732 90.188 205.361 90.188 205.361 91.481" fill="#fff"/><polygon points="287.814 91.481 286.007 91.481 286.185 90.188 287.814 90.188 287.814 91.481" fill="#fff"/><polygon points="307.957 91.481 306.15 91.481 306.328 90.188 307.957 90.188 307.957 91.481" fill="#fff"/><path d="M96.589,104.109h.847c.082,0,.16-.01.234-.034.076-.022.143-.054.203-.095.06-.04.111-.087.153-.144.044-.054.074-.115.093-.182h-1.054c-.12,0-.233-.017-.339-.058-.107-.04-.199-.093-.28-.16-.079-.068-.141-.147-.187-.237-.046-.091-.071-.188-.071-.293v-.519c0-.15.033-.295.099-.425.064-.131.152-.247.266-.346.111-.099.243-.176.395-.234.151-.057.313-.087.484-.087.115,0,.228.014.332.041.106.026.206.063.298.111.092.049.175.106.251.172.078.068.143.138.199.218.053.081.094.166.122.257.029.091.046.184.046.281v1.13c0,.147-.033.285-.1.413-.064.131-.152.244-.265.338-.111.097-.243.172-.395.228-.153.057-.313.085-.484.085h-.847v-.461ZM98.139,103.195v-.821c0-.083-.019-.162-.056-.237-.039-.073-.088-.139-.152-.196-.065-.055-.141-.101-.227-.132-.085-.036-.177-.052-.274-.052-.098,0-.187.016-.273.049-.086.032-.159.077-.221.133-.064.059-.116.125-.153.202-.037.075-.056.158-.056.245v.521c0,.039.009.077.029.111.018.036.041.065.071.091.03.027.067.047.109.063.039.016.083.024.129.024h1.074Z" fill="#fff"/><path d="M99.279,103.419c0-.066.026-.123.079-.167.056-.045.118-.069.194-.069.037,0,.074.008.109.02.033.01.06.027.087.049.023.022.044.044.061.074.012.03.018.059.018.093,0,.032-.007.061-.018.091-.016.03-.037.053-.061.075-.027.022-.055.039-.087.049-.035.014-.071.02-.109.02-.037,0-.074-.006-.106-.02-.032-.01-.062-.027-.088-.049-.023-.022-.044-.045-.058-.075-.013-.03-.021-.059-.021-.091" fill="#fff"/><path d="M104.484,101.294v1.901h.34c.046,0,.093-.008.134-.023.041-.016.078-.038.113-.061.033-.026.056-.058.074-.091.019-.036.029-.072.029-.111v-1.615h.54v1.615c0,.102-.023.2-.069.29-.046.091-.111.171-.192.238-.08.067-.175.118-.283.159-.109.038-.222.058-.344.058h-1.587c-.023.15-.079.285-.166.398-.088.114-.196.211-.326.286-.127.077-.27.133-.428.172-.157.038-.316.056-.478.056-.178,0-.349-.022-.52-.065-.169-.044-.321-.111-.45-.2-.132-.089-.238-.198-.321-.332-.08-.133-.122-.287-.122-.465v-1.779h.541v1.779c0,.101.025.188.076.263.048.075.115.138.196.188.081.052.175.089.28.115.106.025.212.037.321.037s.217-.012.321-.037c.107-.026.199-.063.28-.115.081-.049.148-.113.197-.188.051-.075.077-.162.077-.263v-2.21h.54v1.901h.691v-1.901h.54ZM103.547,100.614c0-.031.007-.061.02-.091.014-.028.035-.052.06-.075.025-.022.053-.04.088-.049.032-.014.067-.02.106-.02.04,0,.074.006.106.02.035.01.063.027.088.049.028.023.046.047.06.075.016.03.023.059.023.091,0,.034-.007.063-.023.093-.013.028-.032.051-.06.073-.026.022-.053.039-.088.049-.032.012-.066.018-.106.018-.039,0-.074-.006-.106-.018-.035-.01-.063-.027-.088-.049-.026-.022-.046-.046-.06-.073-.014-.03-.02-.059-.02-.093ZM103.95,100.115c0-.033.007-.063.019-.091.016-.027.035-.053.06-.075.025-.024.054-.04.086-.052.035-.011.069-.017.109-.017.037,0,.074.006.106.017.032.012.062.028.087.052.026.022.047.048.061.075.013.028.021.058.021.091,0,.034-.007.063-.021.091-.014.03-.035.053-.061.075-.025.024-.056.042-.087.052-.032.012-.07.018-.106.018-.039,0-.074-.006-.109-.018-.032-.01-.06-.028-.086-.052-.025-.022-.044-.045-.06-.075-.012-.028-.019-.058-.019-.091ZM104.35,100.614c0-.031.007-.061.02-.091.017-.028.035-.052.061-.075.025-.022.056-.04.09-.049.03-.014.067-.02.106-.02.037,0,.071.006.106.02.033.01.063.027.086.049.026.023.044.047.061.075.013.03.02.059.02.091,0,.066-.028.123-.081.166-.053.045-.117.067-.192.067-.039,0-.076-.006-.106-.018-.035-.01-.065-.027-.09-.049-.026-.022-.044-.046-.061-.073-.013-.03-.02-.059-.02-.093Z" fill="#fff"/><path d="M106.307,103.419c0-.066.028-.123.081-.167.052-.045.115-.069.192-.069.039,0,.074.008.106.02.035.01.062.027.09.049.023.022.043.044.058.074.014.03.022.059.022.093,0,.032-.009.061-.022.091-.014.03-.035.053-.058.075-.029.022-.056.039-.09.049-.032.014-.067.02-.106.02-.037,0-.074-.006-.107-.02-.033-.01-.063-.027-.086-.049-.027-.022-.046-.045-.06-.075-.014-.03-.021-.059-.021-.091" fill="#fff"/><path d="M111.514,101.294v1.901h.337c.049,0,.093-.008.137-.023.041-.016.079-.038.111-.061.033-.026.058-.058.077-.091.018-.036.024-.072.024-.111v-1.615h.541v1.615c0,.102-.021.2-.069.29-.046.091-.111.171-.189.238-.084.067-.179.118-.285.159-.109.038-.224.058-.344.058h-1.589c-.023.15-.078.285-.167.398-.088.114-.196.211-.323.286-.127.077-.27.133-.427.172-.157.038-.32.056-.481.056-.175,0-.349-.022-.517-.065-.171-.044-.321-.111-.453-.2-.132-.089-.238-.198-.319-.332-.083-.133-.123-.287-.123-.465v-1.779h.542v1.779c0,.101.025.188.074.263.051.075.118.138.199.188.081.052.175.089.279.115.106.025.212.037.321.037s.217-.012.322-.037c.103-.026.196-.063.277-.115.083-.049.148-.113.198-.188.051-.075.077-.162.077-.263v-2.21h.538v1.901h.693v-1.901h.541ZM110.573,100.614c0-.031.007-.061.023-.091.013-.028.032-.052.06-.075.023-.022.054-.04.088-.049.032-.014.067-.02.106-.02.037,0,.071.006.106.02.033.01.063.027.088.049.026.023.046.047.06.075.014.03.021.059.021.091,0,.034-.007.063-.021.093-.014.028-.035.051-.06.073-.025.022-.055.039-.088.049-.035.012-.069.018-.106.018-.04,0-.074-.006-.106-.018-.035-.01-.065-.027-.088-.049-.028-.022-.046-.046-.06-.073-.017-.03-.023-.059-.023-.093ZM110.978,100.115c0-.033.007-.063.021-.091.013-.027.035-.053.06-.075.023-.024.053-.04.086-.052.035-.011.069-.017.106-.017.039,0,.074.006.107.017.035.012.064.028.09.052.025.022.043.048.058.075.016.028.023.058.023.091,0,.034-.007.063-.023.091-.014.03-.033.053-.058.075-.026.024-.055.042-.09.052-.033.012-.068.018-.107.018-.037,0-.071-.006-.106-.018-.033-.01-.063-.028-.086-.052-.025-.022-.046-.045-.06-.075-.014-.028-.021-.058-.021-.091ZM111.379,100.614c0-.031.007-.061.021-.091.014-.028.033-.052.06-.075.026-.022.056-.04.088-.049.032-.014.069-.02.106-.02.037,0,.074.006.109.02.032.01.06.027.086.049.022.023.043.047.057.075.014.03.021.059.021.091,0,.066-.025.123-.078.166-.054.045-.118.067-.194.067-.037,0-.074-.006-.106-.018-.033-.01-.063-.027-.088-.049-.027-.022-.046-.046-.06-.073-.014-.03-.021-.059-.021-.093Z" fill="#fff"/><rect x="114.262" y="102.168" width="1.361" height=".412" fill="#fff"/><path d="M119.385,101.296c.169,0,.331.03.478.085.15.057.28.135.393.232.111.099.201.214.264.342.064.131.097.271.097.417v.527c0,.148-.033.289-.097.421-.063.131-.152.245-.264.342-.113.097-.243.174-.393.232-.147.057-.309.086-.478.086-.171,0-.33-.03-.48-.087-.15-.059-.279-.138-.393-.237-.111-.097-.198-.21-.263-.34-.065-.131-.097-.268-.097-.412v-.048c-.088.008-.16.026-.22.052-.058.023-.106.057-.143.093-.037.039-.064.081-.078.13-.018.048-.026.1-.026.153v1.284h-.54v-1.284c0-.117.018-.226.055-.33.037-.107.094-.198.178-.279.079-.08.183-.143.31-.193.127-.049.281-.077.464-.084v-.024c0-.142.032-.279.097-.407.065-.131.152-.246.263-.344.114-.1.243-.179.393-.236.15-.057.309-.089.48-.089M120.076,102.371c0-.084-.016-.164-.053-.239-.037-.075-.086-.138-.148-.196-.063-.053-.137-.098-.22-.13-.085-.034-.175-.049-.27-.049-.094,0-.185.016-.27.052-.083.031-.157.077-.219.132-.064.057-.116.123-.151.196-.035.073-.053.153-.053.235v.532c0,.083.018.162.053.238.035.073.086.139.151.193.063.058.136.101.219.134.085.032.175.048.27.048.095,0,.186-.016.27-.048.083-.033.157-.077.22-.134.062-.055.111-.12.148-.193.037-.076.053-.156.053-.242v-.528Z" fill="#fff"/><path d="M121.211,103.419c0-.066.027-.123.082-.167.053-.045.115-.069.194-.069.037,0,.071.008.106.02.033.01.062.027.087.049.026.022.047.044.061.074.013.03.021.059.021.093,0,.032-.008.061-.021.091-.014.03-.035.053-.061.075-.026.022-.055.039-.087.049-.035.014-.069.02-.106.02-.04,0-.074-.006-.109-.02-.032-.01-.063-.027-.085-.049-.026-.022-.044-.045-.058-.075-.016-.03-.023-.059-.023-.091" fill="#fff"/><path d="M124.599,101.296c.168,0,.33.03.478.085.15.057.28.135.393.232.11.099.198.214.263.342.064.131.097.271.097.417v.527c0,.148-.033.289-.097.421-.064.131-.153.245-.263.342-.113.097-.243.174-.393.232-.148.057-.31.086-.478.086-.171,0-.331-.03-.481-.087-.15-.059-.279-.138-.393-.237-.111-.097-.201-.21-.265-.34-.063-.131-.095-.268-.095-.412v-.048c-.087.008-.162.026-.219.052-.061.023-.106.057-.144.093-.037.039-.064.081-.081.13-.016.048-.023.1-.023.153v1.284h-.54v-1.284c0-.117.018-.226.055-.33.037-.107.094-.198.178-.279.078-.08.183-.143.31-.193.127-.049.281-.077.464-.084v-.024c0-.142.032-.279.095-.407.064-.131.154-.246.265-.344.113-.1.243-.179.393-.236.15-.057.31-.089.481-.089M125.29,102.371c0-.084-.018-.164-.053-.239-.037-.075-.086-.138-.147-.196-.063-.053-.137-.098-.22-.13-.086-.034-.176-.049-.27-.049-.097,0-.185.016-.27.052-.084.031-.158.077-.221.132-.063.057-.114.123-.148.196-.037.073-.053.153-.053.235v.532c0,.083.016.162.053.238.035.073.085.139.148.193.064.058.138.101.221.134.086.032.173.048.27.048.094,0,.184-.016.27-.048.083-.033.157-.077.22-.134.062-.055.11-.12.147-.193.035-.076.053-.156.053-.242v-.528Z" fill="#fff"/><path d="M126.425,103.419c0-.066.027-.123.08-.167.053-.045.116-.069.192-.069.04,0,.074.008.109.02.032.01.059.027.087.049.023.022.044.044.06.074.014.03.02.059.02.093,0,.032-.006.061-.02.091-.016.03-.037.053-.06.075-.029.022-.056.039-.087.049-.035.014-.069.02-.109.02-.037,0-.074-.006-.106-.02-.033-.01-.063-.027-.086-.049-.025-.022-.046-.045-.06-.075-.014-.03-.02-.059-.02-.091" fill="#fff"/><path d="M127.724,101.294c.328,0,.61.023.843.071.233.048.423.119.574.212.147.093.255.209.325.343.07.137.104.295.104.469v.517c0,.105-.023.202-.069.293-.046.091-.111.171-.192.238-.078.067-.173.118-.281.159-.109.038-.224.058-.346.058h-1.11v-.46h1.11c.046,0,.092-.008.134-.023.043-.016.081-.038.113-.063.033-.026.058-.058.077-.091.016-.036.026-.072.026-.111v-.518c0-.101-.024-.19-.072-.269-.049-.079-.127-.147-.232-.2-.103-.056-.24-.097-.404-.123-.167-.028-.365-.044-.599-.044v-.459ZM128.387,100.614c0-.031.007-.061.021-.091.016-.028.034-.052.06-.075.025-.022.056-.04.088-.049.035-.014.069-.02.109-.02.037,0,.071.006.106.02.033.01.06.027.086.049.026.023.044.047.06.075.011.03.02.059.02.091,0,.066-.028.123-.081.166-.053.045-.117.067-.192.067-.04,0-.074-.006-.109-.018-.032-.01-.063-.027-.088-.049-.026-.022-.044-.046-.06-.073-.014-.03-.021-.059-.021-.093Z" fill="#fff"/></svg>
